<?xml version="1.0" encoding="UTF-8"?>
<svg width="14px" height="108px" viewBox="0 0 14 108" version="1.1" xmlns="http://www.w3.org/2000/svg" xmlns:xlink="http://www.w3.org/1999/xlink">
    <!-- Generator: Sketch 49.3 (51167) - http://www.bohemiancoding.com/sketch -->
    <title>Group 11</title>
    <desc>Created with Sketch.</desc>
    <defs></defs>
    <g id="Page-1" stroke="none" stroke-width="1" fill="none" fill-rule="evenodd">
        <g id="about-me-iPad-768-X-864" transform="translate(-127.000000, -216.000000)">
            <g id="2014" transform="translate(33.000000, 215.000000)">
                <g id="Group-11" transform="translate(94.000000, 1.000000)">
                    <g id="Group-9" transform="translate(7.000000, 27.000000) rotate(-90.000000) translate(-7.000000, -27.000000) translate(-20.000000, 20.000000)">
                        <g id="flag">
                            <path d="M16.3094835,5.242218 L17.1862418,6.22659534 L20.0221319,6.22659534 L17.728022,6.83478096 L18.6041868,7.81894179 L16.3094835,7.21053965 L14.0150769,7.81894179 L14.8912418,6.83478096 L12.5971319,6.22659534 L15.4333187,6.22659534 L16.3094835,5.242218 Z M37.0555714,6.22659534 L37.9317363,5.242218 L38.8079011,6.22659534 L41.6437912,6.22659534 L39.3502747,6.83478096 L40.2258462,7.81894179 L37.9317363,7.21053965 L35.6367363,7.81894179 L36.5131978,6.83478096 L34.2187912,6.22659534 L37.0555714,6.22659534 Z M0.253681319,8.85788046 L53.9866484,8.85788046 L53.9866484,4.47521993 L0.253681319,4.47521993 L0.253681319,8.85788046 Z" id="Fill-59" fill="#FCFBFA"></path>
                            <polygon id="Fill-60" fill="#D92B34" points="0.253681319 4.47521993 53.9866484 4.47521993 53.9866484 0.0986217701 0.253681319 0.0986217701"></polygon>
                            <polygon id="Fill-63" fill="#0F0F0D" points="0.253681319 13.2342621 53.9866484 13.2342621 53.9866484 8.85788046 0.253681319 8.85788046"></polygon>
                            <polygon id="Fill-61" fill="#049457" points="16.1002478 7.86526002 18.0157917 9.05999994 17.2847041 7.12736993 19.1997525 5.93305518 16.831831 5.93305518 16.1002478 4 15.3686647 5.93305518 13 5.93305518 14.9157916 7.12736993 14.1839607 9.05999994"></polygon>
                            <polyline id="Fill-62" fill="#049457" points="36.9155439 7.12736993 36.1839607 9.05999994 38.0997524 7.86526002 40.0157917 9.05999994 39.2842086 7.12736993 41.1997525 5.93305518 38.831831 5.93305518 38.0997524 4 37.3681692 5.93305518 35 5.93305518 36.9155439 7.12736993"></polyline>
                        </g>
                    </g>
                    <rect id="Rectangle-9" fill="#383140" x="0" y="54" width="13.5" height="54"></rect>
                </g>
            </g>
        </g>
    </g>
</svg>