<svg width="14" height="108" xmlns="http://www.w3.org/2000/svg"><g fill="none" fill-rule="evenodd"><path d="M5.242 37.69l.985-.876v-2.836l.608 2.294.984-.876-.608 2.295.608 2.294-.984-.876-.608 2.294v-2.836l-.985-.876zm.985-20.746l-.985-.876.985-.876v-2.836l.608 2.294.984-.876-.608 2.294.608 2.295-.984-.876-.608 2.294v-2.837zm2.63 36.802V.013H4.476v53.733h4.383z" fill="#FCFBFA"/><path fill="#D92B34" d="M4.475 53.746V.013H.1v53.733z"/><path fill="#0F0F0D" d="M13.234 53.746V.013H8.858v53.733z"/><path fill="#049457" d="M7.865 37.9l1.195-1.916-1.933.731L5.933 34.8v2.368L4 37.9l1.933.731V41l1.194-1.916 1.933.732zM7.127 17.084l1.933.732L7.865 15.9l1.195-1.916-1.933.732L5.933 12.8v2.368L4 15.9l1.933.732V19l1.194-1.916"/><path fill="#383140" d="M0 54h13.5v54H0z"/></g></svg>