<?xml version="1.0" encoding="UTF-8"?>
<svg width="14px" height="107px" viewBox="0 0 14 107" version="1.1" xmlns="http://www.w3.org/2000/svg" xmlns:xlink="http://www.w3.org/1999/xlink">
    <!-- Generator: Sketch 49.3 (51167) - http://www.bohemiancoding.com/sketch -->
    <title>Group 3</title>
    <desc>Created with Sketch.</desc>
    <defs></defs>
    <g id="Page-1" stroke="none" stroke-width="1" fill="none" fill-rule="evenodd">
        <g id="about-me-iPad-768-X-864" transform="translate(-127.000000, -355.000000)">
            <g id="2015" transform="translate(31.000000, 351.000000)">
                <g id="Group-3" transform="translate(96.000000, 4.000000)">
                    <g id="turkey" transform="translate(7.000000, 27.000000) rotate(-90.000000) translate(-7.000000, -27.000000) translate(-20.000000, 20.000000)">
                        <polygon id="Fill-60" fill="#D92B34" points="0 13.5 53.732967 13.5 53.732967 0 0 0"></polygon>
                        <g id="logo" transform="translate(17.000000, 0.000000)" fill="#FFFFFE">
                            <polyline id="Fill-3139" points="13.7754 3.63902143 15.1001357 5.45554286 17.2402714 4.76665714 15.9220929 6.58780714 17.2385357 8.4105 15.0991714 7.71949286 13.7725071 9.53466429 13.76865 7.28652857 11.6321786 6.58587857 13.7692286 5.88715714 13.7754 3.63902143"></polyline>
                            <path d="M8.08206429,11.7174214 C5.24860714,11.7174214 2.95148571,9.4203 2.95148571,6.58684286 C2.95148571,3.75338571 5.24860714,1.45626429 8.08206429,1.45626429 C9.99443571,1.45626429 11.6620714,2.50251429 12.5445857,4.05385714 C11.5581214,1.73359286 9.2583,0.10665 6.57816429,0.10665 C2.99931429,0.10665 0.0979714286,3.00799286 0.0979714286,6.58684286 C0.0979714286,10.1656929 2.99931429,13.0670357 6.57816429,13.0670357 C9.2583,13.0670357 11.5581214,11.4400929 12.5445857,9.11982857 C11.6620714,10.6711714 9.99443571,11.7174214 8.08206429,11.7174214" id="Fill-3140"></path>
                        </g>
                    </g>
                    <rect id="Rectangle-9" fill="#383140" x="0" y="53" width="13.5" height="54"></rect>
                </g>
            </g>
        </g>
    </g>
</svg>