<?xml version="1.0" encoding="UTF-8"?>
<svg width="7px" height="12px" viewBox="0 0 7 12" version="1.1" xmlns="http://www.w3.org/2000/svg" xmlns:xlink="http://www.w3.org/1999/xlink">
    <!-- Generator: Sketch 49.3 (51167) - http://www.bohemiancoding.com/sketch -->
    <title>arrow-right</title>
    <desc>Created with Sketch.</desc>
    <defs></defs>
    <g id="Page-1" stroke="none" stroke-width="1" fill="none" fill-rule="evenodd">
        <g id="Portfolio-desktop" transform="translate(-1336.000000, -464.000000)" fill="#CAC7D7" fill-rule="nonzero">
            <g id="arrow-right" transform="translate(1336.000000, 464.000000)">
                <path d="M6.60352473,5.34405696 L1.37157892,0.112347099 C1.29670707,0.0375538955 1.21054939,0 1.1133025,0 C1.01601628,0 0.929897925,0.0375538955 0.855065398,0.112347099 L0.293801785,0.673728682 C0.218851288,0.748561209 0.181533333,0.834522273 0.181533333,0.931965784 C0.181533333,1.02940929 0.218851288,1.11537036 0.293801785,1.19020288 L4.70605026,5.60245136 L0.293801785,10.0147785 C0.218851288,10.089611 0.181533333,10.1757294 0.181533333,10.2728976 C0.181533333,10.3703018 0.218851288,10.4564202 0.293801785,10.5312527 L0.855104722,11.0924376 C0.929937249,11.1673488 1.01605561,11.2046668 1.11334182,11.2046668 C1.21058872,11.2046668 1.29670707,11.1672702 1.37157892,11.0924376 L6.60324946,5.86068846 C6.67804267,5.78589526 6.71547859,5.69973757 6.71547859,5.60245136 C6.71547859,5.50516514 6.67831793,5.41904678 6.60352473,5.34405696 Z" id="Shape"></path>
            </g>
        </g>
    </g>
</svg>