<?xml version="1.0" encoding="UTF-8"?>
<svg width="56px" height="56px" viewBox="0 0 56 56" version="1.1" xmlns="http://www.w3.org/2000/svg" xmlns:xlink="http://www.w3.org/1999/xlink">
    <!-- Generator: Sketch 49.3 (51167) - http://www.bohemiancoding.com/sketch -->
    <title>gmail-icon</title>
    <desc>Created with Sketch.</desc>
    <defs></defs>
    <g id="Symbols" stroke="none" stroke-width="1" fill="none" fill-rule="evenodd">
        <g id="footer-desktop" transform="translate(-636.000000, -15.000000)">
            <g id="footer">
                <g id="Group-7" transform="translate(532.000000, 16.000000)">
                    <g id="gmail-icon" transform="translate(105.000000, 0.000000)">
                        <path d="M27,0 C12.08825,0 0,12.08825 0,27 C0,41.91175 12.08825,54 27,54 C41.91175,54 54,41.91175 54,27 C54,12.08825 41.91175,0 27,0 Z" id="Shape" stroke="#8D2D56" fill-rule="nonzero"></path>
                        <polygon id="Path" fill="#8D2D56" points="39.16425 15 26.99 24.6245 14.41975 15"></polygon>
                        <path d="M40.41675,39 L13.16675,39 L13.16675,19.06475 L25.72775,28.59225 C26.0645,28.84975 26.56275,28.9785 26.9645,28.9785 C27.37575,28.9785 27.73275,28.8435 28.07325,28.5745 L40.41675,18.7555 L40.41675,39 Z" id="Path" fill="#8D2D56"></path>
                    </g>
                </g>
            </g>
        </g>
    </g>
</svg>