
<svg width="27px" height="27px" viewBox="0 0 54 54" version="1.1" xmlns="http://www.w3.org/2000/svg" xmlns:xlink="http://www.w3.org/1999/xlink">
    <g id="Symbols" stroke="none" stroke-width="1" fill="none" fill-rule="evenodd">
        <g id="item--fb" transform="translate(-853.000000, -17.000000)">
            <g id="footer">
                <g id="Group-7" transform="translate(532.000000, 16.000000)">
                    <g id="facebook-logo-button" transform="translate(321.000000, 1.000000)">
                        <path d="M26.81208,0 C12.02796,0 0,12.02796 0,26.81208 C0,41.59512 12.02796,53.62416 26.81208,53.62416 C41.59512,53.62416 53.62416,41.59512 53.62416,26.81208 C53.62416,12.02796 41.59728,0 26.81208,0 Z" id="Shape" fill="#645E6D" fill-rule="nonzero"></path>
                        <path d="M33.48,27.756 L29.11788,27.756 C29.11788,34.72524 29.11788,43.30368 29.11788,43.30368 L22.65408,43.30368 C22.65408,43.30368 22.65408,34.8084 22.65408,27.756 L19.58148,27.756 L19.58148,22.26096 L22.65408,22.26096 L22.65408,18.70668 C22.65408,16.16112 23.86368,12.18348 29.17728,12.18348 L33.96708,12.20184 L33.96708,17.53596 C33.96708,17.53596 31.05648,17.53596 30.49056,17.53596 C29.92464,17.53596 29.12004,17.81892 29.12004,19.03284 L29.12004,22.26204 L34.04484,22.26204 L33.48,27.756 Z" id="Path" fill="#04030C"></path>
                    </g>
                </g>
            </g>
        </g>
    </g>
</svg>