<?xml version="1.0" encoding="UTF-8"?>
<svg width="54px" height="54px" viewBox="0 0 54 54" version="1.1" xmlns="http://www.w3.org/2000/svg" xmlns:xlink="http://www.w3.org/1999/xlink">
    <!-- Generator: Sketch 49.3 (51167) - http://www.bohemiancoding.com/sketch -->
    <title>home</title>
    <desc>Created with Sketch.</desc>
    <defs></defs>
    <g id="Symbols" stroke="none" stroke-width="1" fill="none" fill-rule="evenodd">
        <g id="footer-desktop" transform="translate(-427.000000, -16.000000)" fill-rule="nonzero">
            <g id="footer">
                <g id="Group-7" transform="translate(427.000000, 16.000000)">
                    <g id="home">
                        <path d="M27,0 C12.08825,0 0,12.08825 0,27 C0,41.91175 12.08825,54 27,54 C41.91175,54 54,41.91175 54,27 C54,12.08825 41.91175,0 27,0 Z" id="Shape" fill="#D53C3C"></path>
                        <g id="house-black-silhouette-without-door-(1)" transform="translate(12.000000, 12.000000)" fill="#04030C">
                            <path d="M30.6116123,14.6371021 C31.1735608,14.0193093 31.119296,13.0724176 30.4904513,12.5227073 L16.6361618,0.404837614 C16.007317,-0.144872691 14.9991242,-0.13335726 14.3835172,0.43079784 L0.482137611,13.1687836 C-0.133469363,13.7329387 -0.163683822,14.6786182 0.415241383,15.280148 L0.763768706,15.6429851 C1.34198655,16.2445148 2.27661375,16.3162337 2.84998111,15.8026859 L3.88889367,14.8726633 L3.88889367,28.4883472 C3.88889367,29.323721 4.56604113,30 5.4011324,30 L10.8199289,30 C11.6550202,30 12.3321676,29.323721 12.3321676,28.4883472 L12.3321676,18.9628636 L19.243902,18.9628636 L19.243902,28.4883472 C19.2318769,29.3231149 19.8293956,29.9993939 20.6644869,29.9993939 L26.407053,29.9993939 C27.2421443,29.9993939 27.9192918,29.3231149 27.9192918,28.4877411 L27.9192918,15.0643852 C27.9192918,15.0643852 28.2062786,15.3157044 28.5602627,15.626722 C28.9136405,15.9371336 29.6558653,15.6882387 30.2178138,15.0698398 L30.6116123,14.6371021 Z" id="Shape"></path>
                        </g>
                    </g>
                </g>
            </g>
        </g>
    </g>
</svg>