<svg width="54" height="54" xmlns="http://www.w3.org/2000/svg"><g fill-rule="nonzero" fill="none"><path d="M27 0C12.088 0 0 12.088 0 27s12.088 27 27 27 27-12.088 27-27S41.912 0 27 0z" fill="#D53C3C"/><path d="M42.612 26.637a1.477 1.477 0 00-.122-2.114L28.636 12.405c-.629-.55-1.637-.538-2.252.026L12.482 25.169a1.469 1.469 0 00-.067 2.111l.349.363c.578.602 1.513.673 2.086.16l1.039-.93v13.615c0 .836.677 1.512 1.512 1.512h5.419c.835 0 1.512-.676 1.512-1.512v-9.525h6.912v9.525c-.012.835.585 1.511 1.42 1.511h5.743c.835 0 1.512-.676 1.512-1.511V27.064l.641.563c.354.31 1.096.061 1.658-.557l.394-.433z" fill="#04030C"/></g></svg>