<svg width="56" height="56" xmlns="http://www.w3.org/2000/svg"><g fill="none" fill-rule="evenodd"><path d="M28 1C13.09 1 1 13.09 1 28s12.09 27 27 27 27-12.09 27-27C55 13.086 42.91 1 28 1z" stroke="#8D2D56"/><path fill="#8D2D56" d="M21.25 41.078H14.5V17.453h6.75zM18.084 16.005a3.163 3.163 0 01-3.162-3.166 3.165 3.165 0 013.162-3.165 3.166 3.166 0 010 6.332zM44.875 41.078h-6.75V26.471c0-1.711-.49-2.91-2.592-2.91-3.486 0-4.158 2.91-4.158 2.91v14.607h-6.75V17.453h6.75v2.258a11.29 11.29 0 016.75-2.255c2.187 0 6.75 1.31 6.75 9.22v14.402z"/></g></svg>