<svg width="54" height="54" xmlns="http://www.w3.org/2000/svg"><g fill="none" fill-rule="evenodd"><path d="M27 0C12.09 0 0 12.09 0 27s12.09 27 27 27 27-12.09 27-27C54 12.086 41.91 0 27 0z" fill="#D53C3C" fill-rule="nonzero"/><path fill="#04030C" d="M20.25 40.078H13.5V16.453h6.75zM17.084 15.005a3.163 3.163 0 01-3.162-3.166 3.165 3.165 0 013.162-3.165 3.166 3.166 0 010 6.332zM43.875 40.078h-6.75V25.471c0-1.711-.49-2.91-2.592-2.91-3.486 0-4.158 2.91-4.158 2.91v14.607h-6.75V16.453h6.75v2.258a11.29 11.29 0 016.75-2.255c2.187 0 6.75 1.31 6.75 9.22v14.402z"/></g></svg>