<svg width="27px" height="27px" viewBox="0 0 54 54" version="1.1" xmlns="http://www.w3.org/2000/svg" xmlns:xlink="http://www.w3.org/1999/xlink">
    <g id="Symbols" class="item--ln" stroke="none" stroke-width="1" fill="none" fill-rule="evenodd">
        <g id="item--linkedin" transform="translate(-745.000000, -16.000000)">
            <g id="footer">
                <g id="Group-7" transform="translate(532.000000, 16.000000)">
                    <g id="linkedin-icon" transform="translate(213.000000, 0.000000)">
                        <path d="M27,0 C12.089249,0 0,12.089249 0,27 C0,41.910751 12.089249,54 27,54 C41.910751,54 54,41.910751 54,27 C54,12.0859184 41.910751,0 27,0 Z" id="Shape" fill="#645E6D" fill-rule="nonzero"></path>
                        <polygon id="Path" fill="#04030C" points="20.25 40.0781181 13.5 40.0781181 13.5 16.4530626 20.25 16.4530626"></polygon>
                        <path d="M17.0842201,15.0052303 C15.3359636,15.0052303 13.9218819,13.587707 13.9218819,11.8394505 C13.9218819,10.0911939 15.3394053,8.67367062 17.0842201,8.67367062 C18.8324767,8.67700127 20.25,10.0945246 20.25,11.8394505 C20.25,13.587707 18.8324767,15.0052303 17.0842201,15.0052303 Z" id="Path" fill="#04030C"></path>
                        <path d="M43.8749445,40.0781181 L37.1249445,40.0781181 L37.1249445,25.4711221 C37.1249445,23.7599467 36.6355614,22.561913 34.5329241,22.561913 C31.0465139,22.561913 30.3749445,25.4711221 30.3749445,25.4711221 L30.3749445,40.0781181 L23.6249445,40.0781181 L23.6249445,16.4530626 L30.3749445,16.4530626 L30.3749445,18.7109081 C31.340166,17.9718375 33.749889,16.4563932 37.1249445,16.4563932 C39.3119583,16.4563932 43.8749445,17.7658925 43.8749445,25.676845 L43.8749445,40.0781181 Z" id="Path" fill="#04030C"></path>
                    </g>
                </g>
            </g>
        </g>
    </g>
</svg>