<svg width="37" height="26" xmlns="http://www.w3.org/2000/svg"><g fill="#FFF" fill-rule="nonzero"><path d="M1.396 3.343h34.208c.77 0 1.396-.666 1.396-1.486S36.374.371 35.604.371H1.396C.626.371 0 1.037 0 1.857s.626 1.486 1.396 1.486zM1.396 14.486h34.208c.77 0 1.396-.666 1.396-1.486s-.626-1.486-1.396-1.486H1.396C.626 11.514 0 12.18 0 13s.626 1.486 1.396 1.486zM1.396 25.629h34.208c.77 0 1.396-.666 1.396-1.486s-.626-1.486-1.396-1.486H1.396c-.77 0-1.396.666-1.396 1.486s.626 1.486 1.396 1.486z"/></g></svg>