<svg width="48" height="40" xmlns="http://www.w3.org/2000/svg"><g fill="none" fill-rule="evenodd"><rect stroke="#F4F5F6" stroke-width="2" x="1" y="9" width="46" height="30" rx="2"/><path fill="#F4F5F6" d="M2 20h17v2H2zM29 20h17v2H29z"/><path d="M19.995 17h8.01c.54 0 .995.446.995.997v6.006a1 1 0 01-.995.997h-8.01c-.54 0-.995-.446-.995-.997v-6.006a1 1 0 01.995-.997zm1.996 2A.995.995 0 0021 20.01v1.98c0 .558.451 1.01.99 1.01h4.02c.546 0 .99-.443.99-1.01v-1.98c0-.558-.451-1.01-.99-1.01h-4.02z" fill="#F4F5F6"/><path d="M33 5V4a3 3 0 00-3-3H18c-1.656 0-3 1.345-3 3v1h.1a5 5 0 014.896-4h8.008A5 5 0 0132.9 5h.1z" stroke="#F4F5F6" stroke-width="2"/></g></svg>