<svg width="42" height="40" xmlns="http://www.w3.org/2000/svg"><path d="M8.36 39.665a.739.739 0 01-.729-.866l2.29-13.346L.224 16a.742.742 0 01.41-1.262l13.4-1.948L20.029.648a.74.74 0 011.328 0l5.992 12.143 13.4 1.948A.742.742 0 0141.16 16l-9.697 9.453L33.752 38.8a.742.742 0 01-1.075.78l-11.985-6.3-11.987 6.3a.747.747 0 01-.344.085zM2.334 15.988l8.9 8.676a.74.74 0 01.213.656L9.344 37.57l11.003-5.783a.738.738 0 01.69 0l11.002 5.783-2.101-12.25a.741.741 0 01.212-.656l8.901-8.676-12.3-1.787a.74.74 0 01-.558-.405L20.692 2.65 15.19 13.796a.74.74 0 01-.557.405l-12.3 1.787z" fill="#F4F5F6" fill-rule="nonzero"/></svg>